<svg id="レイヤー_1" data-name="レイヤー 1" xmlns="http://www.w3.org/2000/svg" viewBox="0 0 100 100"><defs><style>.cls-1{fill:#fff;}</style></defs><title>アートボード 1</title><path class="cls-1" d="M50,30.5A10.67,10.67,0,1,1,39.34,41.16,10.66,10.66,0,0,1,50,30.5ZM61.52,52.58l-4.06-1a12.8,12.8,0,0,1-14.92,0l-4.06,1a7.3,7.3,0,0,0-5.54,7.09v6.17a3.65,3.65,0,0,0,3.65,3.66H63.41a3.65,3.65,0,0,0,3.65-3.66V59.67A7.3,7.3,0,0,0,61.52,52.58Zm9.6,1.89A7.11,7.11,0,1,0,64,47.36,7.11,7.11,0,0,0,71.12,54.47Zm-42.24,0a7.11,7.11,0,1,0-7.11-7.11A7.1,7.1,0,0,0,28.88,54.47Zm2.43,11.37V59.67A9,9,0,0,1,32.6,55a8.59,8.59,0,0,1-8.7-.75L21.19,55A4.87,4.87,0,0,0,17.5,59.7v4.11a2.44,2.44,0,0,0,2.44,2.44H31.33C31.32,66.11,31.31,66,31.31,65.84ZM78.81,55l-2.71-.68a8.49,8.49,0,0,1-8.71.73,8.94,8.94,0,0,1,1.3,4.65v6.17c0,.14,0,.28,0,.41H80.06a2.44,2.44,0,0,0,2.44-2.44V59.7A4.87,4.87,0,0,0,78.81,55Z"/></svg>