<svg id="レイヤー_1" data-name="レイヤー 1" xmlns="http://www.w3.org/2000/svg" viewBox="0 0 100 100"><defs><style>.cls-1{fill:#fff;}</style></defs><title>アートボード 1</title><path class="cls-1" d="M74.05,43.63a.59.59,0,0,1,1,.46v20a4.69,4.69,0,0,1-4.69,4.69H29.69A4.69,4.69,0,0,1,25,64.06v-20a.59.59,0,0,1,.95-.46C28.13,45.34,31,47.5,41,54.74c2.06,1.5,5.53,4.66,9,4.64s7-3.2,9-4.64C69,47.5,71.87,45.33,74.05,43.63ZM50,56.25c2.27,0,5.53-2.85,7.17-4C70.13,42.8,71.11,42,74.1,39.64a2.33,2.33,0,0,0,.9-1.85V35.94a4.69,4.69,0,0,0-4.69-4.69H29.69A4.69,4.69,0,0,0,25,35.94v1.85a2.34,2.34,0,0,0,.9,1.85c3,2.33,4,3.16,16.93,12.57,1.64,1.19,4.9,4.08,7.17,4Z"/></svg>