<svg id="レイヤー_1" data-name="レイヤー 1" xmlns="http://www.w3.org/2000/svg" viewBox="0 0 100 100"><defs><style>.cls-1{fill:#fff;}</style></defs><title>アートボード 1</title><path class="cls-1" d="M65,45.23l-.64,1.12a1,1,0,0,1-1.18.42,8.58,8.58,0,0,1-2.51-1.45,1,1,0,0,1-.22-1.23L61.07,43a6.63,6.63,0,0,1-1.24-2.14H58.54a1,1,0,0,1-1-.8,9.1,9.1,0,0,1,0-2.9,1,1,0,0,1,1-.81h1.29a6.79,6.79,0,0,1,1.24-2.15l-.64-1.11a1,1,0,0,1,.22-1.23,8.49,8.49,0,0,1,2.51-1.45,1,1,0,0,1,1.18.42L65,31.92a6.84,6.84,0,0,1,2.47,0l.64-1.12a1,1,0,0,1,1.18-.42,8.36,8.36,0,0,1,2.51,1.45A1,1,0,0,1,72,33.06l-.64,1.11a6.79,6.79,0,0,1,1.24,2.15h1.29a1,1,0,0,1,1,.8,8.56,8.56,0,0,1,0,2.9,1,1,0,0,1-1,.81H72.6A6.63,6.63,0,0,1,71.36,43L72,44.09a1,1,0,0,1-.22,1.23,8.71,8.71,0,0,1-2.51,1.45,1,1,0,0,1-1.18-.42l-.64-1.12A6.83,6.83,0,0,1,65,45.23Zm-.82-4.59a2.92,2.92,0,0,0,4.12-4.13A2.92,2.92,0,0,0,64.16,40.64Zm-9,12L57.78,54a1.89,1.89,0,0,1,.82,2.28,18.3,18.3,0,0,1-3.33,5.14,1.88,1.88,0,0,1-2.37.41l-2.27-1.31A13.49,13.49,0,0,1,46.34,63v2.62a1.88,1.88,0,0,1-1.54,1.85,17.88,17.88,0,0,1-5.93,0,1.88,1.88,0,0,1-1.56-1.85V63A13.69,13.69,0,0,1,33,60.49l-2.27,1.3a1.86,1.86,0,0,1-2.37-.41,18.52,18.52,0,0,1-3.3-5.13A1.89,1.89,0,0,1,25.9,54l2.6-1.31a13.72,13.72,0,0,1,0-4.95l-2.6-1.32a1.87,1.87,0,0,1-.82-2.27A18.43,18.43,0,0,1,28.38,39a1.86,1.86,0,0,1,2.37-.41L33,39.88a13.49,13.49,0,0,1,4.29-2.48V34.77a1.87,1.87,0,0,1,1.53-1.84,17.94,17.94,0,0,1,5.94,0,1.88,1.88,0,0,1,1.56,1.85v2.62a13.69,13.69,0,0,1,4.29,2.48l2.27-1.31a1.87,1.87,0,0,1,2.37.41,18.17,18.17,0,0,1,3.29,5.14,1.88,1.88,0,0,1-.78,2.28L55.15,47.7A13.78,13.78,0,0,1,55.15,52.66ZM46,54.31c4.62-6-2.24-12.88-8.26-8.26C33.07,52.07,39.94,58.93,46,54.31ZM65,68.58l-.64,1.12a1,1,0,0,1-1.18.42,8.36,8.36,0,0,1-2.51-1.45,1,1,0,0,1-.22-1.23l.64-1.11a6.79,6.79,0,0,1-1.24-2.15H58.54a1,1,0,0,1-1-.8,9.1,9.1,0,0,1,0-2.9,1,1,0,0,1,1-.81h1.29a6.63,6.63,0,0,1,1.24-2.14l-.64-1.12a1,1,0,0,1,.22-1.23,8.71,8.71,0,0,1,2.51-1.45,1,1,0,0,1,1.18.42L65,55.27a6.84,6.84,0,0,1,2.47,0l.64-1.12a1,1,0,0,1,1.18-.42,8.58,8.58,0,0,1,2.51,1.45A1,1,0,0,1,72,56.41l-.64,1.12a6.63,6.63,0,0,1,1.24,2.14h1.29a1,1,0,0,1,1,.8,8.56,8.56,0,0,1,0,2.9,1,1,0,0,1-1,.81H72.6a6.79,6.79,0,0,1-1.24,2.15L72,67.44a1,1,0,0,1-.22,1.23,8.49,8.49,0,0,1-2.51,1.45,1,1,0,0,1-1.18-.42l-.64-1.12A6.83,6.83,0,0,1,65,68.58ZM64.16,64a2.91,2.91,0,0,0,4.12-4.12A2.91,2.91,0,0,0,64.16,64Z"/></svg>